  0
SECTION
  2
TRAILERS
  0
ENDSEC
  0
SECTION
  2
ENTITIES
  0
LWPOLYLINE
  8
100.00_10_10
 90
        4
 10
647065.0
 20
7784085.0
 38
100.0
 10
647075.0
 20
7784085.0
 38
100.0
 10
647075.0
 20
7784095.0
 38
100.0
 10
647065.0
 20
7784095.0
 38
100.0
  0
LWPOLYLINE
  8
100.00_10_20
 90
        4
 10
647075.0
 20
7784085.0
 38
100.0
 10
647085.0
 20
7784085.0
 38
100.0
 10
647085.0
 20
7784095.0
 38
100.0
 10
647075.0
 20
7784095.0
 38
100.0
  0
LWPOLYLINE
  8
100.00_20_10
 90
        4
 10
647065.0
 20
7784095.0
 38
100.0
 10
647075.0
 20
7784095.0
 38
100.0
 10
647075.0
 20
7784105.0
 38
100.0
 10
647065.0
 20
7784105.0
 38
100.0
  0
LWPOLYLINE
  8
100.00_20_20
 90
        4
 10
647075.0
 20
7784095.0
 38
100.0
 10
647085.0
 20
7784095.0
 38
100.0
 10
647085.0
 20
7784105.0
 38
100.0
 10
647075.0
 20
7784105.0
 38
100.0
  0
LWPOLYLINE
  8
105.00_10_10
 90
        4
 10
647065.0
 20
7784085.0
 38
105.0
 10
647075.0
 20
7784085.0
 38
105.0
 10
647075.0
 20
7784095.0
 38
105.0
 10
647065.0
 20
7784095.0
 38
105.0
  0
LWPOLYLINE
  8
105.00_10_20
 90
        4
 10
647075.0
 20
7784085.0
 38
105.0
 10
647085.0
 20
7784085.0
 38
105.0
 10
647085.0
 20
7784095.0
 38
105.0
 10
647075.0
 20
7784095.0
 38
105.0
  0
LWPOLYLINE
  8
105.00_20_10
 90
        4
 10
647065.0
 20
7784095.0
 38
105.0
 10
647075.0
 20
7784095.0
 38
105.0
 10
647075.0
 20
7784105.0
 38
105.0
 10
647065.0
 20
7784105.0
 38
105.0
  0
LWPOLYLINE
  8
105.00_20_20
 90
        4
 10
647075.0
 20
7784095.0
 38
105.0
 10
647085.0
 20
7784095.0
 38
105.0
 10
647085.0
 20
7784105.0
 38
105.0
 10
647075.0
 20
7784105.0
 38
105.0
  0
ENDSEC
  0
EOF
